# xmcd CD database file
#
# Track frame offsets:
#	150
#	21980
#	38944
#	57830
#	79626
#	96735
#	120542
#	127853
#	146312
#	163399
#	176945
#	201518
#
# Disc length: 2903 seconds
#
# Revision: 1
# Processed by: cddbd v1.5.2PL0 Copyright (c) Steve Scherf et al.
# Submitted via: CDex 1.51
#
DISCID=ae0b550c
DTITLE=Moreland and Arbuckle - Just A Dream
DYEAR=2011
DGENRE=Blues
TTITLE0=The Brown Bomber
TTITLE1=Just a Dream
TTITLE2=Purgatory
TTITLE3=Travel Every Mile
TTITLE4=Heartattack And Vine
TTITLE5=Troll
TTITLE6=Gypsy Violin
TTITLE7=Shadow Never Changes
TTITLE8=Good Love
TTITLE9=Who Will Be Next
TTITLE10=So Low
TTITLE11=White Lightnin'
EXTD=YEAR: 2011
EXTT0=
EXTT1=
EXTT2=
EXTT3=
EXTT4=
EXTT5=
EXTT6=
EXTT7=
EXTT8=
EXTT9=
EXTT10=
EXTT11=
PLAYORDER=
